<svg xmlns="http://www.w3.org/2000/svg" width="208" height="229" viewBox="0 0 208 229" fill="none"><path fill-rule="evenodd" clip-rule="evenodd" d="M8.42742 164.127C8.22186 164.333 8.07897 164.484 7.93066 164.625C6.84078 163.659 5.77309 162.711 4.71669 161.758C4.66145 161.705 4.58655 161.652 4.5568 161.585C3.82211 159.86 2.02839 158.851 0.688953 157.534C-0.47928 156.387 -1.48285 155.13 -2.58763 153.88C-3.05895 153.864 -3.23048 154.218 -3.19089 154.536C-3.12856 155.005 -2.96582 155.514 -2.69234 155.946C-1.7869 157.364 -0.71719 158.695 0.761261 159.756C1.49903 160.29 2.10971 160.87 2.49265 161.639C2.68829 162.025 2.9789 162.441 3.34759 162.719C5.56515 164.402 7.09855 166.542 9.04362 168.405C9.72045 169.058 10.508 169.635 11.2872 170.209C11.5312 170.392 11.9822 170.615 12.1799 170.541C13.4588 170.109 14.1091 171.007 14.9105 171.597C15.1712 171.786 15.4402 171.979 15.6525 172.212C18.0922 174.88 21.3979 176.621 24.5779 178.496C26.3152 179.523 28.0926 180.502 30.139 181.673C29.3155 181.567 28.8646 181.502 28.0972 181.402C28.4627 181.87 28.6031 182.203 28.878 182.382C31.2803 183.93 33.6738 185.499 36.1308 186.965C38.2459 188.226 40.4616 189.344 42.6114 190.548C43.3763 190.973 44.2686 191.329 44.1307 192.356C44.1013 192.607 44.6742 193.092 45.0809 193.283C46.6209 194.018 47.7995 195.049 48.7868 196.277C49.0727 196.635 49.4197 197.032 49.8402 197.236C51.7702 198.155 53.3514 199.614 55.4288 200.28C58.8996 201.386 61.9013 203.176 64.744 205.245C65.5843 205.859 66.5237 206.424 67.5139 206.802C72.4758 208.711 77.4136 210.723 82.4727 212.361C86.5881 213.694 90.5754 215.304 94.6211 216.777C95.313 217.03 96.0697 217.27 96.774 217.29C97.8851 217.317 98.8761 217.648 99.8856 218.049C101.74 218.78 103.612 219.47 105.458 220.221C106.855 220.789 108.267 221.276 109.758 221.396C112.052 221.582 114.28 222.283 116.575 222.51C118.346 222.683 120.115 223.317 121.889 223.714C122.442 223.834 123.085 224.021 123.572 223.909C124.93 223.612 126.292 223.761 127.695 223.95C128.166 224.014 128.883 224.095 129.089 223.889C129.78 223.164 130.643 223.429 131.533 223.585C134.464 224.083 137.406 224.578 140.342 225.063C140.662 225.115 141.111 225.275 141.295 225.164C142.195 224.592 143.182 224.953 144.101 225.224C147.884 226.332 151.75 226.583 155.592 227.166C157.639 227.471 159.678 227.589 161.722 227.535C166.755 227.414 171.8 227.377 176.819 227.218C178.344 227.168 179.831 226.866 181.328 226.678C182.278 226.555 183.218 226.413 184.177 226.318C184.484 226.286 184.86 226.297 185.13 226.419C185.392 226.537 185.637 226.807 185.74 227.046C185.805 227.19 185.659 227.484 185.495 227.571C185.11 227.786 184.685 228.002 184.224 228.053C183.276 228.168 182.307 228.22 181.333 228.214C179.545 228.193 177.773 228.202 175.58 228.421C176.375 228.73 176.78 229.015 177.145 229.007C179.178 229.004 181.2 228.957 183.219 228.87C183.936 228.839 184.622 228.605 185.336 228.534C189.486 228.124 193.178 226.892 196.528 225.002C196.851 224.818 197.218 224.69 197.541 224.506C199.584 223.363 201.311 222.025 201.931 219.826C202.316 218.45 202.939 217.135 203.497 215.81C204.5 213.426 203.432 211.341 201.489 209.36C200.774 208.636 199.932 207.958 199.401 207.147C198.585 205.907 197.465 204.922 196.314 203.917C194.93 202.702 193.561 201.477 192.286 200.193C191.171 199.059 189.958 198.038 188.624 197.097C184.97 194.528 181.356 191.912 177.688 189.353C176.83 188.757 175.865 188.23 174.875 187.852C171.525 186.578 168.276 185.137 165.103 183.519C164.373 183.148 163.575 182.892 162.797 182.589C161.876 182.23 160.956 181.871 159.868 181.448C160.113 181.082 160.233 180.779 160.458 180.573C164.086 177.328 167.351 173.815 170.504 170.219C170.776 169.903 170.973 169.535 171.192 169.183C172.064 167.766 173.141 166.485 174.276 165.226C177.119 162.081 179.453 158.642 181.512 155.049C182.643 153.073 183.851 151.143 185.062 149.207C187.271 145.696 189.45 142.164 191.77 138.713C193.132 136.676 194.056 134.476 194.999 132.276C195.727 130.58 196.515 128.9 197.36 127.25C198.013 125.978 198.089 124.641 197.907 123.219C197.796 122.317 197.41 121.554 196.43 121.061C195.387 120.535 194.873 119.707 194.407 118.858C192.505 115.414 190.028 112.287 186.872 109.514C186.396 109.098 185.883 108.676 185.316 108.36C183.572 107.394 182.042 106.226 180.587 104.951C180.103 104.532 179.59 104.133 179.052 103.772C177.911 102.994 176.77 102.216 175.592 101.478C173.589 100.229 171.72 98.8487 169.422 97.9453C167.601 97.2277 165.999 95.9993 164.28 95.0434C159.53 92.4131 154.796 89.7657 149.63 87.8082C139.287 83.8968 129.022 79.8252 118.67 75.9342C115.414 74.7133 112.004 73.8771 108.658 72.8673C107.94 72.6511 107.21 72.486 106.507 72.2358C100.574 70.1069 94.4416 69.2194 88.2964 68.4066C86.753 68.2026 85.1912 68.2697 83.6425 68.2147C82.4979 68.1741 81.3496 68.1876 80.2061 68.0759C76.9021 67.7423 73.9156 68.3988 71.0938 69.4454C69.69 69.9636 68.3398 70.6298 67.5221 71.8533C67.1075 72.4787 66.4396 72.9656 65.8693 73.4986C65.721 73.6395 65.4932 73.8289 65.3084 73.8046C63.9604 73.6688 63.5257 74.3182 63.2347 75.2699C63.0596 75.8376 62.5159 76.2856 62.2233 76.8313C61.5048 78.165 60.711 79.4693 60.679 81.0467C60.6796 81.182 60.6575 81.3245 60.6133 81.4503C59.9171 83.3014 59.302 85.1682 59.3624 87.6003C58.7324 86.9972 58.4387 86.7714 58.2297 86.5071C57.801 85.9585 57.3978 85.396 57.0397 84.8192C55.5772 82.4687 53.5529 80.4717 51.3273 78.6028C50.8954 78.2437 50.4124 77.9124 50.0458 77.5152C47.9309 75.2284 45.2245 73.5696 42.539 71.8395C39.8702 70.1159 36.8859 69.1278 33.9516 68.0003C33.3743 67.7754 32.6362 67.7659 32.0232 67.8291C29.6276 68.0641 27.1801 68.2153 24.8788 68.6857C22.6423 69.1417 20.6153 69.9973 19.251 71.6755C18.6032 72.4803 17.6774 73.1132 16.8961 73.8421C16.4286 74.272 15.8242 74.6565 15.5684 75.1848C13.9321 78.5217 12.3909 81.8877 12.4919 85.7506C12.5316 87.0697 12.5123 88.3897 12.4203 89.6972C12.2663 91.855 12.5702 93.9925 13.2865 96.1476C13.7407 97.5249 14.0878 98.9241 14.3312 100.315C14.9072 103.639 16.2944 106.803 17.9378 109.916C19.3718 112.629 20.7778 115.339 21.9045 118.131C22.2008 118.874 22.6126 119.599 23.064 120.299C24.1805 122.022 25.3677 123.717 26.4842 125.44C27.6966 127.303 29.0878 129.046 30.8444 130.597C31.085 130.81 31.3341 131.026 31.5154 131.264C33.3283 133.639 35.2404 135.966 37.6783 138.069C36.2139 138.182 35.9634 138.22 35.0267 137.831C31.1549 136.203 27.0502 135.573 23 134.702C21.8644 134.458 20.7042 134.34 19.5861 134.055C18.0376 133.659 16.5099 133.532 14.9488 133.552C13.9857 133.566 12.9923 133.378 12.0178 133.236C11.3653 133.141 10.6939 132.84 10.0704 132.859C7.72521 132.931 5.39268 133.087 3.06056 133.22C2.98192 133.221 2.89454 133.243 2.83226 133.274C1.37894 134.067 -0.22392 134.571 -2.02032 134.729C-2.31553 134.758 -2.62442 134.931 -2.80742 135.13C-4.08711 136.452 -5.35844 137.777 -6.57413 139.131C-7.17193 139.797 -7.25233 140.576 -6.7986 141.476C-6.46428 142.131 -6.40631 142.861 -6.1004 143.537C-5.74295 144.32 -5.52349 145.129 -4.53645 145.696C-3.72725 146.155 -3.58175 147.022 -3.31381 147.787C-2.08694 151.301 -0.586212 154.724 2.26652 157.704C4.27787 159.799 6.29467 161.904 8.42742 164.127ZM46.1354 137.613C45.6717 137.305 45.211 136.99 44.739 136.679C44.4677 135.945 43.8238 135.512 43.156 135.156C42.5126 135.358 42.5849 135.736 42.8862 136.013C43.9368 136.978 44.9815 137.958 46.129 138.834C47.7891 140.109 49.5575 141.291 51.2461 142.545C51.8227 142.977 52.6533 143.499 52.732 143.999C52.9031 145.011 53.735 145.622 54.2832 146.416C54.7463 147.089 55.0987 147.838 55.1572 148.704C54.4442 148.704 53.8295 148.703 53.2766 148.694C49.4306 146.027 45.9181 143.22 42.7077 140.14C40.5915 138.107 38.4639 136.078 36.3619 134.035C35.7955 133.488 35.2409 132.914 34.7824 132.298C32.8057 129.644 30.8628 126.979 28.9228 124.307C28.6511 123.939 28.3826 123.541 28.2547 123.133C27.8206 121.732 26.9743 120.472 26.1451 119.195C25.6907 118.501 25.3044 117.762 24.9968 117.022C23.9481 114.436 22.6765 111.913 21.3176 109.412C19.5992 106.247 18.2555 103.004 17.6385 99.6161C17.3296 97.9457 16.7819 96.2855 16.3437 94.6204C16.18 94.0001 15.8876 93.3615 15.8866 92.7491C15.9032 89.9098 15.9674 87.0731 16.0961 84.2457C16.2154 81.6451 17.5273 79.406 18.5485 77.0933C18.7613 76.6198 19.2921 76.2702 19.7028 75.8817C20.4758 75.1496 21.3459 74.487 22.0272 73.6953C23.0975 72.4749 24.5688 71.7764 26.3061 71.4598C28.1701 71.1209 30.0881 70.9065 31.9949 70.6957C32.5264 70.6405 33.1633 70.6581 33.6653 70.8537C36.2958 71.847 38.9501 72.7621 41.3298 74.3174C43.5902 75.7865 45.8882 77.1907 47.7149 79.079C47.9853 79.3593 48.3181 79.6082 48.6424 79.8538C51.622 82.1278 54.042 84.7958 56.2719 87.5884C56.6018 88.0031 56.9422 88.4617 57.0861 88.9232C57.4724 90.1627 57.7659 91.4138 58.0594 92.6649C58.1379 93.0055 58.1458 93.3742 58.0675 93.6935C57.4829 96.0809 56.7784 98.4296 55.8421 100.704C55.7603 100.895 55.5028 101.017 55.326 101.178C54.7691 99.9041 54.3055 98.7537 53.7574 97.618C53.2094 96.4824 52.7608 95.2742 51.9524 94.2676C50.4012 92.3515 48.7572 90.447 46.888 88.7488C45.6076 87.5901 44.0661 86.6078 42.8263 85.3775C42.4977 85.0507 42.0821 84.7218 41.6441 84.5591C40.4586 84.113 39.4276 83.4887 38.4233 82.7793C37.347 82.0101 36.0798 81.572 34.7644 81.3377C34.0927 81.219 33.8391 81.4461 33.6006 82.2752C36.4171 82.721 38.3927 84.6037 40.7955 85.7864C40.448 85.7543 40.1322 85.671 39.831 85.5536C38.1183 84.9021 36.411 84.2607 34.7213 83.5784C33.8988 83.242 33.1469 83.2193 32.3517 83.434C30.2032 84.0037 28.2396 84.7569 27.4291 86.8973C26.3809 85.7893 25.5637 84.8031 25.198 83.6749C24.3201 83.627 24.2955 84.0943 24.3841 84.5024C24.5353 85.1973 24.8383 85.8797 25.012 86.5675C25.0964 86.8945 25.165 87.3266 24.9816 87.5492C24.205 88.4946 24.4051 89.6219 24.3924 90.7218C24.3818 91.5206 24.6431 92.3458 24.4524 93.1776C23.8984 92.8982 23.4122 92.5974 23.0073 92.9722C22.765 93.1958 22.6135 93.5262 22.5494 93.8351C22.5003 94.0862 22.6636 94.3884 22.6927 94.662C22.8961 96.6014 23.0882 98.5443 23.2853 100.521C22.7541 100.393 22.3793 100.311 21.8648 100.19C22.0308 102.854 22.1941 105.342 23.1829 107.818C23.8804 109.584 24.8422 111.326 25.2867 113.113C25.7859 115.16 26.9843 116.851 28.4955 118.473C28.683 118.674 29.0068 118.784 29.293 118.959C29.4799 118.523 29.626 118.182 29.8743 117.604C30.3907 118.449 30.7647 119.079 31.1555 119.716C31.5136 120.293 31.7952 120.912 32.244 121.436C33.4115 122.79 34.6753 124.101 35.8826 125.43C36.4062 126.007 36.9805 126.581 37.3742 127.211C38.3672 128.767 39.644 130.139 41.0908 131.41C42.5515 132.695 43.6071 134.195 44.6486 135.706C44.8295 135.967 44.7249 136.348 44.7616 136.672C44.985 136.743 45.2079 136.838 45.4288 136.892C45.8902 137 46.1137 137.231 46.1128 137.62C46.4395 137.723 46.7691 137.82 47.0958 137.923C47.0553 137.995 47.0148 138.067 46.9743 138.138C46.6798 137.96 46.4019 137.788 46.1354 137.613ZM189.333 113.566C189.599 113.924 189.869 114.275 190.135 114.633C189.064 114.192 189.064 114.192 189.333 113.566C189.195 113.568 189.052 113.584 188.912 113.545C188.851 113.529 188.802 113.415 188.753 113.348C188.814 113.387 188.872 113.434 188.942 113.453C189.067 113.502 189.199 113.537 189.333 113.566ZM64.2913 163.996C63.5698 163.834 63.2123 163.393 62.9904 162.726C63.9519 162.807 64.2439 163.31 64.3536 163.965C64.5733 164.09 64.7984 164.225 65.1181 164.414C64.5181 164.538 64.2817 164.406 64.2913 163.996ZM171.562 116.18C170.469 115.77 169.808 115.011 169.289 114.149C170.34 114.59 171.297 115.114 171.506 116.198C171.582 116.203 171.674 116.192 171.73 116.221C171.855 116.294 171.972 116.387 172.091 116.473C172.011 116.522 171.929 116.577 171.85 116.626C171.754 116.485 171.664 116.331 171.562 116.18ZM83.61 80.9046C83.5411 80.997 83.4692 81.0962 83.3836 81.1821C83.3664 81.1993 83.2635 81.1432 83.202 81.1272C83.3488 81.0811 83.4984 81.0281 83.6452 80.9819C84.8411 80.812 86.0688 80.7499 87.2682 81.2094C90.4563 82.4279 93.7816 83.1673 97.0265 84.1853C101.469 85.5748 105.921 86.9202 110.367 88.3029C111.616 88.6939 112.837 89.1463 114.034 89.7952C113.821 89.927 113.712 90.0673 113.6 90.0554C111.064 89.7985 108.535 89.5921 106.123 88.4772C104.777 87.8575 103.337 87.3915 101.954 86.8366C101.421 86.6211 100.818 86.4338 100.428 86.091C99.8828 85.6084 99.3152 85.4746 98.6368 85.417C96.8121 85.2544 95.0673 84.6778 93.3542 84.05C92.2159 83.6303 91.1507 83.0403 90.0274 82.5628C88.6171 81.9576 87.2255 81.5822 85.729 81.4283C85.0063 81.3375 84.247 81.4231 83.61 80.9046ZM164.461 116.457C165.889 117.681 167.644 118.691 168.254 120.455C168.292 120.573 168.458 120.709 168.589 120.768C169.391 121.105 170.163 121.604 171 121.589C172.013 120.298 170.432 119.452 169.947 118.285C171.963 118.911 173.251 120.121 174.611 121.207C176.082 122.377 177.683 123.47 178.883 125.09C177.989 125.353 177.275 125.56 176.55 125.77C176.797 126.471 177.914 126.62 178.044 127.41C176.377 127.086 174.718 126.742 173.064 126.455C172.683 126.386 172.174 126.434 171.918 126.621C171.637 126.821 171.565 127.238 171.383 127.596C170.469 127.359 169.59 127.041 168.707 126.935C167.816 126.827 166.924 126.995 166.038 126.944C164.683 126.869 163.325 126.849 161.929 126.392C162.707 125.511 163.567 125.123 164.872 125.29C167.998 125.697 170.956 124.878 174.069 125.09C174.383 125.109 174.713 125.023 174.987 124.907C175.168 124.826 175.25 124.612 175.448 124.379C174.937 124.18 174.501 123.923 174.053 123.851C173.076 123.693 172.082 123.552 171.114 123.533C169.208 123.49 167.579 122.871 166.207 121.653C165.503 121.815 164.849 121.974 164.201 122.119C163.264 121.07 164.774 120.76 164.587 120.012C164.221 119.408 163.841 118.791 163.429 118.114C164.439 117.967 164.908 117.625 164.492 116.795C164.441 116.688 164.522 116.544 164.529 116.412C164.374 116.32 164.218 116.227 164.065 116.128C164.127 116.12 164.24 116.085 164.254 116.098C164.328 116.222 164.396 116.336 164.461 116.457ZM106.093 216.827C106.304 216.814 106.512 216.784 106.728 216.804C106.775 216.807 106.82 216.999 106.863 217.104C106.787 217.098 106.692 217.116 106.636 217.087C106.436 216.985 106.252 216.866 106.066 216.753C105.668 216.749 105.251 216.833 104.888 216.723C104.016 216.455 103.172 216.102 102.318 215.77C100.767 215.173 99.2312 214.543 97.6801 213.97C96.5949 213.563 96.5832 213.591 95.2859 213.952C96.7448 214.671 98.1998 215.286 99.747 215.595C101.473 215.941 103.085 216.554 104.717 217.189C105.872 217.639 107.064 218.001 108.242 218.396C108.633 218.533 109.027 218.662 109.691 218.889C108.123 218.97 106.945 218.598 105.768 218.155C104.995 217.862 104.209 217.508 103.408 217.395C102.156 217.217 100.999 216.798 99.8322 216.375C99.2156 216.151 98.5684 215.906 97.9356 215.811C95.9502 215.522 94.0828 214.89 92.2316 214.129C90.0792 213.25 87.9089 212.436 85.7448 211.585C84.0492 210.916 82.2927 210.367 80.8719 209.217C80.5672 208.971 80.1631 208.798 79.7811 208.641C76.9573 207.461 74.1334 206.281 71.3062 205.132C69.4604 204.381 67.603 203.657 65.7481 202.95C64.4232 202.442 63.1726 201.851 62.0641 200.998C61.5071 200.566 60.805 200.245 60.1306 199.95C59.0688 199.489 57.987 199.051 56.8872 198.678C55.6005 198.24 54.4942 197.587 53.5119 196.735C53.4566 196.682 53.3533 196.649 53.3177 196.596C52.958 196.114 52.6694 195.58 52.2358 195.157C51.8105 194.736 51.1382 194.482 50.9987 193.76C51.92 193.73 52.6062 194.156 53.2698 194.59C55.0415 195.741 56.8019 196.896 58.5423 198.075C59.0419 198.413 59.4712 198.596 60.1214 198.492C60.5211 198.425 61.0933 198.616 61.4854 198.84C64.0766 200.335 66.9383 201.267 69.767 202.163C71.4703 202.7 73.0032 203.361 74.4761 204.252C75.3736 204.801 76.3221 205.322 77.3149 205.716C86.1131 209.201 94.9146 212.654 103.727 216.104C104.492 216.394 105.3 216.582 106.093 216.827ZM162.885 225.667C162.952 225.693 163.03 225.716 163.097 225.742C163.147 225.762 163.206 225.784 163.256 225.804C163.105 225.745 162.958 225.68 162.807 225.621C162.631 225.735 162.473 225.944 162.285 225.95C160.906 225.977 159.515 226.103 158.145 225.927C154.218 225.406 150.278 225.166 146.38 224.26C143.573 224.247 140.876 223.546 138.164 222.743C135.859 222.06 133.507 221.556 131.164 221.009C129.494 220.621 127.842 220.056 126.06 219.998C126.266 220.269 126.42 220.48 126.719 220.875C125.566 220.536 124.524 220.711 123.634 219.895C123.269 219.562 122.583 219.454 122.024 219.323C120.819 219.036 119.59 218.804 118.371 218.551C116.989 218.267 115.66 217.837 114.323 217.356C111.834 216.465 109.263 215.765 106.724 214.991C106.646 214.968 106.562 214.936 106.484 214.937C104.858 214.971 103.444 214.237 101.998 213.626C99.5472 212.599 97.1287 211.522 94.6492 210.564C89.609 208.631 84.5367 206.774 79.4849 204.869C78.662 204.556 77.7276 204.367 77.4632 203.389C77.4028 203.143 76.8652 202.894 76.5058 202.73C75.6005 202.314 74.6747 201.945 73.7576 201.556C69.5599 199.777 65.2402 198.237 61.3321 195.919C60.2731 195.292 59.1769 194.706 58.0716 194.164C57.4088 193.842 56.685 193.48 55.9841 193.43C55.115 193.361 54.4163 193.009 53.6721 192.696C52.3844 192.146 51.1 191.566 49.786 191.078C47.5847 190.268 45.5505 189.205 43.6319 187.941C42.6795 187.315 41.6929 186.724 40.7033 186.14C38.3656 184.76 36.0676 183.355 34.1159 181.553C33.4856 180.974 32.668 180.512 31.8952 180.06C28.7817 178.235 25.634 176.444 22.5235 174.612C21.6256 174.087 20.6767 173.59 19.8905 172.759C20.5429 172.353 21.0314 172.353 21.6896 172.776C24.717 174.711 27.7327 176.673 30.8374 178.519C35.2095 181.121 39.2462 184.141 43.8279 186.459C44.1898 186.64 44.5167 186.902 44.8155 187.162C46.3184 188.439 48.1638 189.214 49.9986 189.945C53.0827 191.178 56.2222 192.282 59.3355 193.448C60.1082 193.741 60.9494 193.965 61.6385 194.385C64.0558 195.876 66.7681 196.678 69.4687 197.508C71.3762 198.092 73.2545 198.745 74.9633 199.792C75.7914 200.298 76.7394 200.683 77.6626 201.035C83.4231 203.2 89.1753 205.362 94.9508 207.47C99.1638 209.008 103.456 210.339 107.575 212.119C112.469 214.233 117.608 215.663 122.735 217.073C128.097 218.55 133.535 219.691 138.948 220.982C139.267 221.058 139.594 221.138 139.904 221.259C141.393 221.839 142.948 222.016 144.499 222.271C146.316 222.565 148.227 222.388 149.927 223.48C150.233 223.678 150.724 223.647 151.136 223.736C151.457 223.806 151.881 223.796 152.069 223.973C152.893 224.739 153.928 224.625 154.869 224.73C156.007 224.855 157.163 224.869 158.289 224.838C159.882 224.768 161.395 224.952 162.885 225.667ZM178.154 105.934L178.086 105.956C178.19 105.782 178.299 105.618 178.467 105.341C179.902 106.457 181.346 107.576 182.732 108.648C183.139 110.27 183.219 110.404 184.374 111.308C184.878 111.703 185.405 112.091 185.958 112.441C188.8 114.24 190.299 116.756 191.529 119.398C191.713 119.787 191.79 120.223 191.828 120.635C191.845 120.801 191.624 120.953 191.483 121.144C190.707 120.198 190.066 119.233 189.224 118.42C188.329 117.547 187.241 116.805 186.269 116.02C186.334 115.481 187.384 115.652 187.044 114.804C186.486 114.467 185.828 113.997 185.101 113.642C181.697 111.949 178.283 110.277 174.867 108.612C173.38 107.89 171.884 107.188 170.377 106.489C170.085 106.351 169.74 106.289 169.489 106.739C169.805 106.981 170.142 107.264 170.503 107.516C171.097 107.93 171.942 108.236 172.256 108.756C172.71 109.497 173.387 109.808 174.113 110.187C175.288 110.795 176.433 111.448 177.622 112.023C179.786 113.081 181.775 114.341 183.568 115.85C185.038 117.091 186.588 118.259 188.092 119.465C188.876 120.097 189.264 120.876 189.418 121.723C188.785 122.335 188.192 122.898 187.51 123.555C189.254 124.338 189.586 125.771 190.46 126.899C190.768 127.297 190.559 127.74 190.092 127.939C189.029 128.392 187.851 128.521 186.517 128.534C186.445 128.132 186.386 127.815 186.33 127.491C186.771 127.464 187.071 127.446 187.392 127.428C187.985 126.499 187.666 125.468 187.288 124.573C186.964 123.803 186.166 123.158 186.032 122.264C185.989 122 185.525 121.693 185.186 121.505C184.769 121.271 184.269 121.139 183.808 120.96C183.223 120.732 182.752 120.373 182.772 119.825C182.797 118.809 182.111 118.041 181.294 117.397C177.994 114.823 174.89 112.063 171.265 109.792C169.062 108.417 166.691 107.525 164.234 106.742C163.882 106.629 163.332 106.59 163.099 106.745C162.824 106.932 162.783 107.369 162.625 107.737C162.288 107.566 161.988 107.425 161.701 107.273C158.03 105.406 154.5 103.299 150.578 101.834C148.407 101.02 146.212 100.173 144.181 99.1027C139.651 96.7095 134.971 94.5757 130.223 92.6222C121.781 89.1497 113.248 85.8883 104.734 82.5624C103.973 82.2657 103.145 82.0783 102.333 81.921C98.5953 81.1878 94.8477 80.5223 91.11 79.7653C88.3432 79.2038 85.5901 78.6556 82.8022 78.849C82.1699 78.8888 81.4928 78.76 80.8399 78.6885C78.9315 78.4933 77.0983 78.6692 75.2937 78.9835C74.4265 79.1384 73.6276 79.4074 73.1808 80.1076C72.9445 80.4766 73.2378 81.0678 73.7455 81.0908C74.4665 81.1174 75.1995 81.093 75.8865 80.9712C77.0999 80.7604 78.2842 80.7768 79.5007 81.2191C81.3953 81.9017 83.3494 82.218 85.3288 82.3614C86.4559 82.4429 87.6048 82.5647 88.9532 83.1776C88.3875 83.2672 88.0936 83.3831 87.8163 83.3466C84.9066 82.9361 82.1128 83.1432 79.3461 83.5833C78.5186 83.7139 77.6875 83.557 76.9411 83.2025C75.4316 82.4871 73.868 81.9891 72.2433 81.6104C71.2759 81.3844 70.6615 80.8588 70.3926 79.983C70.1053 79.0363 69.6632 78.1089 69.2403 77.0459C69.512 76.4125 69.7998 75.6502 70.1629 74.9173C70.4359 74.3719 70.9712 73.9207 71.107 73.3536C71.2341 72.8069 70.9976 72.1743 70.9122 71.5766C71.0914 71.4318 71.2347 71.2571 71.4383 71.1695C73.9201 70.1414 76.5583 69.5002 79.503 69.6699C81.7914 69.7986 84.0832 69.8967 86.3691 70.0085C87.1039 70.0484 87.8475 70.0679 88.5757 70.1688C93.7318 70.8744 98.8625 71.753 103.916 73.1978C105.274 73.5838 106.641 73.9494 107.987 74.3864C111.465 75.5194 114.977 76.5538 118.379 77.8639C129.383 82.104 140.353 86.4427 151.315 90.7781C153.544 91.6622 155.696 92.7235 157.874 93.7234C158.242 93.8906 158.537 94.1806 158.896 94.3919C160.876 95.5369 162.789 96.7911 165.083 97.407C165.469 97.5096 165.818 97.765 166.188 97.949C168.56 99.1593 170.554 100.795 172.619 102.355C174.374 103.682 176.223 104.856 178.154 105.934ZM59.4103 162.285C59.742 162.764 60.0623 163.246 60.4136 163.725C60.7787 164.217 61.2454 164.677 61.5119 165.194C61.9602 166.084 62.6358 166.809 63.4611 167.48C64.6576 168.447 65.7037 169.515 66.1215 170.886C66.3022 171.489 66.8011 171.874 67.3564 172.241C69.5135 173.678 71.387 175.457 73.9651 176.391C74.5734 176.612 75.0823 177.064 75.6551 177.391C76.3727 177.79 77.0611 178.257 77.8312 178.533C79.3351 179.079 80.6636 179.875 81.9746 180.712C83.7023 181.807 85.3753 182.983 87.3799 183.637C88.9043 184.136 90.2386 184.918 91.5696 185.731C92.3282 186.193 93.1378 186.628 93.9803 186.941C97.4149 188.199 100.876 189.373 104.302 190.629C105.957 191.234 107.658 191.571 109.375 191.803C109.772 191.854 110.293 191.962 110.545 191.806C111.345 191.33 112.111 191.685 112.858 191.992C114.562 192.687 116.313 193.179 118.138 193.365C119.446 193.502 120.758 193.608 122.056 193.724C124.088 193.904 126.119 193.836 128.138 194.639C129.038 194.998 130.066 194.993 130.687 194.138C130.847 193.922 131.386 193.918 131.758 193.848C132.375 193.731 133.027 193.691 133.622 193.533C136.546 192.725 139.146 191.377 142.117 190.619C144.057 190.127 145.796 189.191 147.572 188.373C150.803 186.897 153.953 185.335 156.732 183.318C157.082 183.072 157.481 182.87 157.853 182.641C160.108 183.234 162.145 184.155 164.031 185.311C166.279 186.696 168.652 187.835 171.169 188.729C171.947 189.008 172.708 189.352 173.489 189.625C174.84 190.096 175.987 190.837 177.139 191.635C180.68 194.08 184.303 196.446 187.879 198.857C188.886 199.536 189.871 200.246 190.796 201.003C191.784 201.818 192.998 202.609 193.551 203.595C194.222 204.787 195.568 205.041 196.418 205.881C196.672 206.131 196.861 206.42 197.109 206.731C196.805 206.779 196.628 206.782 196.489 206.831C195.902 207.063 195.8 207.46 196.23 207.732C196.369 207.818 196.505 207.934 196.656 207.969C198.142 208.373 198.525 209.325 198.632 210.464C198.973 214.11 198.981 214.114 196.455 216.953C196.412 217.007 196.347 217.046 196.312 217.104C195.496 218.256 194.265 218.85 192.592 218.834L192.679 218.812C192.205 219.144 191.744 219.513 191.009 219.314C190.663 218.821 191.638 218.144 190.594 217.777C189.919 218.508 189.483 219.411 188.668 219.785C186.762 220.656 184.663 221.269 182.647 221.985C175 222.853 167.343 223.605 159.368 222.254C156.681 221.803 153.968 221.572 151.277 221.176C149.65 220.939 148.016 220.628 146.405 220.263C141.144 219.072 135.899 217.846 130.644 216.641C127.568 215.935 124.474 215.341 121.43 214.513C116.781 213.242 112.178 211.814 107.703 210.022C103.78 208.446 99.8159 206.941 95.8405 205.463C93.3464 204.539 90.8451 203.541 88.2781 202.946C85.8985 202.392 83.7393 201.416 81.4904 200.603C81.4151 200.573 81.3314 200.541 81.2561 200.511C79.3058 199.799 77.3764 199.015 75.6173 197.948C73.4219 196.624 71.0114 195.732 68.6101 194.797C67.0706 194.197 65.5695 193.484 64.0651 192.803C62.5606 192.121 61.1183 191.249 59.5517 190.758C56.3713 189.749 53.415 188.263 50.3101 187.101C49.5345 186.815 48.7538 186.494 48.0475 186.092C47.4886 185.779 46.8664 185.385 46.5627 184.909C45.5262 183.273 43.8387 182.29 42.1027 181.351C40.286 180.373 38.578 179.278 36.9392 178.067C34.8569 176.524 32.7001 175.064 30.5664 173.573C29.9948 173.175 29.4232 172.777 28.2885 172.645C29.2897 173.544 30.0309 174.206 31.2007 175.258C30.364 174.932 30.0537 174.859 29.8147 174.71C23.6362 170.856 17.4371 167.049 11.4507 162.952C9.52452 161.637 7.9382 160.144 6.69913 158.366C6.63338 158.269 6.68926 158.115 6.68966 158.092C7.04622 157.921 7.34342 157.774 7.61511 157.642C7.24679 156.838 6.94342 156.179 6.64004 155.521C6.67217 155.446 6.70137 155.378 6.7335 155.303C6.66934 155.111 6.6737 154.85 6.5268 154.737C4.82016 153.389 3.44248 151.842 2.38535 150.095C2.77496 149.961 3.36873 149.874 3.22897 149.335C2.88182 147.935 3.87882 147.068 4.39094 145.988C4.91593 146.153 5.27901 146.262 5.66721 146.382C6.40656 145.477 5.48691 144.07 6.72908 143.314C8.50677 143.267 10.4249 143.554 12.1644 142.936C12.4637 142.83 12.9595 143.063 13.3627 143.125C14.8044 143.361 16.0661 142.946 17.3593 142.663C17.4241 142.648 17.4508 142.563 17.4993 142.519C17.5392 142.312 17.5679 142.108 17.627 141.766C18.0157 142.02 18.4901 142.189 18.6037 142.448C18.9309 143.188 19.533 143.446 20.3347 143.512C21.0691 143.576 21.8035 143.64 22.5433 143.713C23.7679 143.841 24.9904 143.928 26.2138 144.126C29.7129 144.711 33.2175 145.305 36.7125 145.968C38.2488 146.256 39.7806 146.647 41.2977 147.071C43.5386 147.698 45.7348 148.474 47.9852 149.033C50.5066 149.666 52.8923 150.524 55.2869 151.862C55.4383 152.375 55.6246 152.988 55.7996 153.604C56.3328 155.458 56.751 157.306 58.2701 158.955C59.1496 159.91 59.7872 161.064 59.4522 162.301L59.4103 162.285ZM72.3592 171.369C73.279 171.592 73.6756 171.715 74.0759 171.783C74.4816 171.862 74.8902 171.934 75.2863 171.921C75.4744 171.915 75.6599 171.733 75.7748 171.579C75.8379 171.5 75.7854 171.281 75.6887 171.188C75.3928 170.921 75.0977 170.608 74.7324 170.457C73.0628 169.751 71.9977 168.478 70.7275 167.386C70.0939 166.838 69.62 166.303 69.5795 165.532C69.5596 165.214 69.356 164.801 69.0789 164.582C67.8155 163.589 66.6021 162.456 65.1457 161.754C63.901 161.149 63.1723 160.412 62.6277 159.405C62.2356 158.68 61.7984 157.969 61.4598 157.233C61.2457 156.776 60.9436 156.205 61.0654 155.807C61.3852 154.811 60.7158 154.05 60.2132 153.218C59.164 151.497 57.5843 149.944 57.4211 147.956C56.2769 146.207 56.4982 144.393 56.3385 142.694C56.7802 142.301 57.1307 141.985 57.5068 141.654C56.8518 141.041 56.2696 140.6 56.3002 139.777C56.4906 134.939 56.7873 130.126 58.0551 125.485C58.2647 124.7 58.3685 123.866 58.3878 123.047C58.4888 117.005 59.1943 111.08 60.5995 105.276C60.7594 104.607 60.9165 103.945 61.0317 103.267C61.0724 103.012 61.0796 102.586 60.9101 102.48C59.7297 101.726 60.1567 100.867 60.2776 100.016C60.4919 98.4459 61.1618 96.9978 61.5434 95.4932C62.163 93.024 63.1311 90.6985 64.1133 88.3627C64.2389 88.0698 64.3071 87.6831 64.9734 87.7917C65.2209 88.1027 65.5549 88.4395 65.7957 88.8116C66.7179 90.2361 67.9205 91.5076 69.3086 92.5971C71.7883 94.557 73.9156 96.7691 76.2501 98.8394C78.8974 101.183 81.9185 103.155 85.2763 104.638C86.9092 105.362 88.2587 106.245 89.5193 107.404C91.6372 109.343 94.0914 110.975 96.8417 112.189C97.9981 112.704 99.0917 113.273 99.9423 114.113C101.276 115.444 102.924 116.269 104.754 116.942C108.183 118.215 111.579 119.562 114.979 120.903C115.486 121.108 115.938 121.467 116.41 121.755C116.355 122.703 117.216 122.903 117.998 123.152C119.506 123.621 121.014 124.089 122.534 124.53C124.21 125.017 125.965 125.319 127.546 125.983C130.938 127.408 134.419 128.422 138.004 129.215C139.618 129.574 141.253 129.997 142.778 130.607C145.185 131.576 147.658 132.23 150.172 132.812C150.821 132.962 151.466 133.118 152.112 133.274C158.91 134.866 165.726 136.187 172.634 136.359C172.962 136.368 173.29 136.424 173.615 136.463C176.072 136.768 178.517 137.077 180.977 137.376C182.22 137.527 183.416 137.563 184.543 137.12C185.623 136.698 186.797 136.83 188.075 137.082C187.774 137.783 187.626 138.401 187.276 138.901C184.76 142.467 183.708 146.787 180.502 150.005C180.259 150.252 180.166 150.605 179.968 150.886C178.549 152.94 177.153 155.012 175.696 157.043C175.092 157.881 174.484 158.709 173.29 159.102C172.561 159.343 172.052 159.916 172.341 160.744C172.54 161.306 172.219 161.69 171.949 162.069C171.299 162.969 170.602 163.842 169.897 164.712C168.616 166.287 167.243 167.803 166.06 169.425C164.738 171.231 163.201 172.858 161.358 174.286C159.819 175.483 158.264 176.697 156.969 178.076C154.182 181.044 150.222 182.879 147.129 185.537C147.072 185.579 147.001 185.607 146.933 185.652C145.102 186.894 142.93 187.677 140.824 188.557C140.408 188.729 139.875 188.744 139.506 188.966C139.166 189.167 138.977 189.539 138.691 189.864C138.286 189.579 137.978 189.364 137.728 189.195C136.963 189.318 136.288 189.548 135.586 189.521C132.902 189.429 130.198 189.266 127.509 189.116C126.861 189.078 126.196 189.034 125.55 188.901C123.6 188.507 121.662 188.085 119.724 187.64C119.341 187.554 118.821 187.423 118.634 187.176C118.088 186.446 117.321 186.298 116.48 186.209C115.416 186.096 114.356 185.994 113.292 185.833C112.648 185.741 111.979 185.64 111.376 185.405C109.901 184.814 108.428 184.311 106.851 184.071C106.129 183.956 105.415 183.686 104.7 183.463C102.555 182.794 100.428 182.108 98.2772 181.453C95.7301 180.675 93.2319 179.829 90.9565 178.417C88.181 176.692 85.3199 175.052 82.4956 173.395C82.0508 173.134 81.6062 172.691 80.8433 172.99C81.0468 173.244 81.1658 173.513 81.3989 173.675C84.1871 175.644 86.9754 177.613 89.7895 179.544C91.9709 181.038 94.445 181.986 97.0146 182.757C99.5592 183.518 102.092 184.33 104.63 185.105C105.348 185.321 106.07 185.483 106.796 185.679C107.998 185.996 109.206 186.276 110.387 186.641C112.194 187.21 113.932 188.03 115.92 187.994C116.035 188.476 116.119 188.874 116.237 189.35C118.538 189.905 120.884 190.604 123.232 190.526C126.274 190.423 129.269 190.795 132.285 191.39C132.565 191.444 132.832 191.595 133.242 191.755C132.638 192.275 131.989 192.308 131.346 192.281C128.486 192.143 125.626 192.094 122.764 191.822C117.913 191.362 113.134 190.414 108.557 188.472C106.269 187.5 103.911 186.669 101.599 185.752C98.8217 184.646 96.0297 183.574 93.2903 182.379C92.0641 181.846 90.8847 181.362 89.5501 181.104C87.6808 180.75 85.8712 180.188 84.3654 178.917C83.7121 178.368 82.8289 177.969 82.0068 177.609C78.6487 176.149 75.7376 174.307 72.3592 171.369ZM51.1752 137.383C50.4968 136.824 49.8452 136.34 49.2647 135.803C47.1581 133.862 45.0942 131.889 42.9906 129.94C40.6739 127.806 38.9939 125.37 37.4643 122.835C36.6094 121.413 35.6614 120.026 34.6878 118.653C33.44 116.894 32.2147 115.129 31.5735 113.186C30.2961 109.334 28.9568 105.489 28.5454 101.553C28.5192 101.273 28.4621 100.996 28.3882 100.713C27.6928 97.9857 27.7998 95.277 27.6543 92.5653C27.6071 91.6963 27.8807 90.9445 28.3334 90.2306C28.8148 89.4722 29.3465 88.7335 29.7778 87.9556C30.5509 86.5399 31.7511 85.6085 33.9432 85.4612C35.0392 85.8883 36.3495 86.4307 37.6777 86.9085C41.8212 88.4039 45.3792 90.6728 48.5529 93.4278C49.3055 94.0867 50.1464 94.4939 51.1508 94.8614C52.0797 96.7258 53.065 98.5724 53.9064 100.458C54.2421 101.201 54.4883 101.925 55.3455 102.362C54.4773 105.434 53.7202 108.406 53.2563 111.469C52.4887 116.583 52.1752 121.731 52.9993 127.005C53.0725 127.494 53.0868 127.985 53.1517 128.471C53.5332 131.338 53.5894 134.19 53.4774 137.024C53.4725 137.149 53.3806 137.272 53.331 137.388C52.6769 137.388 52.0342 137.384 51.1752 137.383ZM70.035 85.7577C73.561 88.7613 77.2189 91.4347 81.1626 93.8062C84.3225 95.7053 87.5167 97.57 90.6595 99.4863C96.8866 103.296 103.269 106.856 109.992 109.921C113.527 111.537 116.987 113.307 120.49 114.998C121.534 115.5 122.584 115.989 123.652 116.437C130.097 119.123 136.751 121.255 143.354 123.526C146.469 124.597 149.406 126.242 152.739 126.484C153.133 128.14 153.155 128.156 154.824 128.592C155.148 128.678 155.472 128.741 155.797 128.804C160.926 129.777 166.049 130.764 171.222 130.84C171.55 130.849 171.882 130.827 172.2 130.904C174.191 131.362 176.109 131.195 178.043 131.034C183.971 130.53 183.971 130.53 190.568 131.384C190.586 131.455 190.635 131.545 190.601 131.58C190.475 131.737 190.355 131.993 190.184 132.005C188.25 132.166 187.084 133.381 185.452 134.001C185.723 134.369 185.924 134.63 186.176 134.975C185.201 135.199 184.304 135.446 183.378 135.601C182.767 135.705 182.115 135.769 181.476 135.711C174.666 135.06 167.901 134.03 161.262 131.999C160.908 131.893 160.517 131.939 160.034 131.902C160.16 132.428 160.258 132.816 160.373 133.298C155.349 132.286 150.462 131.089 145.425 129.762C145.817 129.351 146.091 129.076 146.397 128.75C146.11 128.598 145.919 128.452 145.706 128.401C144.58 128.137 143.414 128.009 142.334 127.636C140.283 126.908 138.194 126.428 136.067 126.06C134.348 125.764 132.694 125.27 131.063 124.611C122.911 121.307 114.735 118.033 106.55 114.804C103.912 113.76 101.328 112.682 99.0245 111.085C98.7608 110.902 98.478 110.697 98.1709 110.593C96.15 109.909 94.5714 108.626 92.9122 107.463C89.3883 105 85.9217 102.473 82.3719 100.048C77.3178 96.6004 72.5942 92.8599 68.2074 88.7896C68.048 88.7513 67.889 88.6894 67.7376 88.678C66.0719 88.5774 65.9108 88.4749 65.4718 87.1989C65.2575 86.5828 65.0658 85.9596 64.8486 85.3503C64.1488 83.3845 64.6403 81.6921 65.7512 80.0582C66.0738 80.2396 66.3193 80.3273 66.4767 80.484C67.6006 81.5977 68.699 82.7252 69.8087 83.8492C70.3913 84.426 70.1819 85.028 70.035 85.7577ZM114.438 96.5265C114.622 96.2328 114.676 96.0154 114.835 95.9183C115.559 95.4373 116.46 95.4308 117.375 95.6203C120.659 96.296 123.815 97.4541 126.7 99.0155C129.331 100.438 132.008 101.688 134.792 102.757C139.832 104.689 144.887 106.588 149.694 109.017C151.389 109.869 153.206 110.505 154.884 111.374C157.305 112.627 157.285 112.699 157.449 114.98C157.955 115.392 158.566 115.813 159.032 116.321C159.239 116.544 159.131 116.955 159.178 117.324C158.418 117.298 157.784 117.273 157.071 117.25C156.754 117.897 156.449 118.518 155.554 118.67C155.196 118.729 154.687 118.642 154.499 119.125C156.525 119.366 158.483 119.604 160.528 119.845C160.833 120.433 161.428 120.935 161.018 121.753C160.262 121.832 159.402 122.061 158.541 121.996C154.159 121.648 149.901 120.648 145.795 118.905C143.969 118.13 142.135 117.375 140.295 116.634C138.53 115.923 136.738 115.272 134.985 114.533C132.694 113.569 130.426 112.55 128.132 111.569C127.917 111.477 127.656 111.471 127.433 111.423C127.131 111.648 126.858 111.852 126.696 111.979C123.84 111.033 121.191 110.016 118.466 109.289C114.9 108.336 111.477 107.05 108.214 105.46C104.254 103.536 100.116 102.05 95.9848 100.48C95.752 100.636 95.5389 100.792 95.2919 100.958C95.0744 100.873 94.8255 100.816 94.6255 100.69C88.9131 97.1603 83.2236 93.5998 77.7861 89.748C77.3894 89.4662 76.9392 89.1954 76.6587 88.8476C75.545 87.4597 74.4652 86.0612 73.4393 84.628C73.1595 84.2329 72.7948 83.7171 73.3494 83.2894C74.7215 83.8241 76.0853 84.3555 77.5746 84.9359C76.3145 87.0998 77.7378 88.6083 79.5553 90.04C80.7744 90.9999 82.1179 91.7381 83.6414 92.2841C85.6758 93.0053 87.5598 93.9859 89.3023 95.2054C89.0081 95.5042 88.7855 95.7274 88.4629 96.0469C90.3002 97.1364 92.3973 97.4608 94.0429 98.428C94.7023 98.2795 95.3172 97.9388 95.73 98.0918C97.1135 98.6229 98.4557 99.2732 99.7435 99.9817C100.675 100.496 101.483 101.184 102.369 101.76C102.766 102.018 103.222 102.299 103.684 102.384C104.848 102.607 105.882 103.065 106.948 103.56C107.584 103.856 108.366 103.898 109.082 104.05C110.03 103.251 110.843 104.021 111.666 104.469C112.609 104.979 113.498 105.572 114.473 106.008C115.127 106.302 115.907 106.511 116.606 106.521C117.064 106.524 117.469 106.102 117.911 105.869C119.008 106.431 120.015 106.951 121.064 107.487C121.684 106.703 122.442 106.506 123.444 106.88C124.069 107.108 124.717 107.281 125.336 107.522C128.125 108.601 130.909 109.694 133.692 110.786C136.709 111.97 139.724 113.161 142.742 114.321C143.194 114.497 143.885 114.774 144.135 114.625C145.107 114.042 146.124 114.359 147.17 114.584C147.296 114.609 147.435 114.536 147.573 114.51C147.48 114.315 147.388 114.12 147.291 113.915C147.778 113.621 148.255 113.329 148.791 113.013C149.092 113.449 149.322 113.777 149.577 114.139C150.187 113.287 150.187 113.287 150.072 112.281C148.344 111.186 146.524 110.238 144.566 109.499C144.027 109.297 143.455 109.082 143.006 108.764C141.735 107.879 140.45 107.029 138.957 106.455C138.665 106.341 138.329 106.123 138.192 105.895C137.7 105.083 136.815 104.825 135.97 104.496C131.416 102.682 126.862 100.867 122.308 99.0769C119.759 98.0757 117.315 96.8292 114.438 96.5265ZM-2.2884 139.681C-2.37633 139.567 -2.47553 139.457 -2.56346 139.343C-2.38048 139.144 -2.15021 138.971 -2.02288 138.743C-1.31436 137.501 -0.358026 136.546 1.4761 136.481C1.77385 136.47 2.09363 136.317 2.32096 136.151C3.38371 135.381 4.69751 135.209 6.11185 135.236C6.76005 135.25 7.41492 135.203 8.03961 135.112C9.16522 134.947 10.2709 134.964 11.4279 135.272C12.8811 135.664 14.3474 135.774 15.819 135.735C16.6193 135.713 17.452 135.775 18.258 135.923C22.411 136.69 26.5606 137.489 30.7072 138.294C31.3564 138.419 32.0311 138.531 32.6306 138.773C34.3454 139.465 36.1076 139.842 37.9128 140.164C39.2842 140.404 40.6667 140.823 41.7658 141.745C43.2356 142.985 44.6996 144.239 46.1439 145.494C46.3653 145.683 46.6533 145.923 46.3801 146.309C45.9526 146.19 45.4971 146.068 45.042 145.923C41.2361 144.71 37.4171 143.619 33.4625 143.072C31.4993 142.799 29.5464 142.412 27.6056 141.974C25.8969 141.586 24.1964 141.384 22.4633 141.281C21.5378 141.231 20.5126 141.435 19.7681 140.462C19.5923 140.234 18.8563 140.265 18.3686 140.218C17.3093 140.116 16.1903 140.22 15.2018 139.906C12.5267 139.063 10.2031 139.858 7.811 140.222C6.34753 140.447 5.05305 141.142 3.64791 141.573C2.68299 141.864 2.07878 142.408 1.83743 143.244C1.60523 144.036 1.41234 144.827 1.18852 145.622C0.976361 146.39 0.875904 147.193 0.37903 148.033C0.039171 147.71 -0.288864 147.519 -0.374806 147.286C-0.933651 145.789 -1.44734 144.277 -1.94428 142.772C-2.14979 142.135 -1.70442 141.689 -1.25811 141.354C-0.0871285 140.491 1.15542 139.711 2.82846 139.544C3.28967 139.493 3.7165 139.318 4.14291 139.166C4.2587 139.124 4.37144 138.929 4.32788 138.849C4.24659 138.674 4.07112 138.423 3.90884 138.391C2.3064 138.029 0.837908 138.22 -0.500564 138.859C-1.08367 139.149 -1.6944 139.411 -2.2884 139.681ZM87.6006 91.0447C88.0787 89.8161 88.8486 88.9317 88.4397 87.6992C88.2984 87.2546 88.7083 86.9136 89.2067 86.8216C89.6545 86.7338 90.1484 86.7435 90.6138 86.7738C92.3971 86.8964 94.1701 87.1342 95.9173 86.726C96.7514 86.5344 97.829 86.8907 98.7901 86.995C99.7344 87.9353 101.126 88.1753 102.243 88.8254C102.588 89.0234 102.903 89.2894 103.18 89.5561C103.525 89.8894 103.248 90.489 102.774 90.5028C102.616 90.5051 102.433 90.545 102.299 90.4928C100.843 89.9492 99.4176 89.9263 97.9654 90.1473C97.5151 90.2183 96.9952 90.0872 96.5017 90.0539C95.6071 89.9994 94.7042 89.9417 93.8092 89.9109C93.6942 89.9058 93.5797 90.0361 93.3984 90.1403C93.4187 90.4344 93.4525 90.7655 93.4753 91.0765C94.0945 91.3178 94.6216 91.5232 95.2324 91.7612C95.0279 92.2379 94.8468 92.6602 94.6628 93.0893C94.122 93.0296 93.6653 92.9788 92.864 92.8891C93.6194 94.042 93.7518 95.1905 94.9824 95.9642C95.2381 96.1195 95.4215 96.3976 95.5886 96.6456C95.6598 96.7528 95.6592 96.9592 95.5794 97.0315C95.4423 97.1689 95.1978 97.3518 95.0385 97.3136C94.0124 97.0647 93.0343 96.6359 91.9432 96.5843C91.6571 96.5682 91.1394 96.136 91.0877 95.8694C90.8596 94.7392 89.8644 93.9857 89.1581 93.0825C88.6469 92.4302 88.1444 91.7574 87.6006 91.0447ZM104.413 95.013C104.264 95.543 104.264 96.0675 103.98 96.4101C103.227 97.3247 103.546 98.1964 104.235 99.1168C104.6 99.6089 104.932 100.112 105.249 100.625C105.301 100.708 105.197 100.859 105.161 100.988C104.546 101.17 104.063 100.886 103.642 100.499C102.716 99.6536 101.89 98.7115 100.887 97.9311C99.4453 96.8289 98.636 95.3689 97.3987 94.1554C96.8353 93.602 97.0641 92.6816 97.7208 92.3572C98.2529 92.0956 98.7937 91.8135 99.3912 91.6727C100.947 91.3012 102.516 91.1258 103.806 92.5585C103.475 93.0337 103.144 93.5089 102.779 94.0185C103.335 94.3622 103.738 94.6067 104.413 95.013ZM130.06 98.1707C131.497 97.8483 132.477 98.3178 133.476 98.6753C137.464 100.102 141.462 101.525 145.444 102.965C146.223 103.245 147.069 103.479 147.736 103.906C149.138 104.802 150.693 105.368 152.235 105.985C154.471 106.873 156.736 107.716 158.944 108.671C160.535 109.355 162.065 110.182 163.619 110.954C163.836 111.062 164.136 111.227 164.176 111.386C164.483 112.65 165.844 113.188 166.744 114.048C167.117 114.408 167.383 114.837 167.811 115.386C166.39 114.943 166.39 114.943 165.941 114.442C165.737 114.212 165.584 113.93 165.329 113.774C162.845 112.211 160.339 110.677 157.967 108.99C157.781 108.854 157.528 108.716 157.304 108.692C155.519 108.505 153.998 107.61 152.455 106.882C148.759 105.14 144.868 103.989 140.958 102.839C140.335 102.652 139.574 102.49 139.151 102.111C138.33 101.362 137.327 101.035 136.337 100.633C134.358 99.8297 132.361 99.0673 130.06 98.1707ZM139.257 120.26C138.487 120.302 138.182 120.398 137.923 120.321C133.425 119.037 119.979 114.139 116.642 111.606C117.67 111.371 118.439 111.901 119.236 112.228C123.753 114.083 128.255 115.973 132.78 117.808C133.845 118.239 134.983 118.523 136.092 118.852C137.028 119.129 138.016 119.284 139.257 120.26ZM187.594 224.613C191.305 222.903 194.932 221.232 199.048 219.331C198.532 220.147 198.367 220.599 198.023 220.902C197.498 221.374 196.901 221.809 196.242 222.14C194.311 223.113 192.35 224.042 190.379 224.95C189.915 225.167 189.343 225.247 188.808 225.356C188.225 225.486 187.902 225.17 187.594 224.613ZM109.901 96.6984C110.024 97.0721 110.082 97.2777 110.155 97.4729C110.666 98.8325 111.062 99.1142 112.614 99.0034C113.541 98.9355 114.352 99.1165 115.192 99.571C115.292 100.135 115.39 100.658 115.506 101.323C113.213 100.429 111.141 99.6139 109.052 98.8157C108.154 98.4736 107.518 97.884 106.999 97.2048C106.647 96.7498 106.601 96.2868 107.169 95.8961C108.035 96.154 108.896 96.4019 109.901 96.6984ZM115.178 92.0455C115.055 91.33 115.566 91.1871 116.026 91.2074C117.574 91.2623 119.119 91.3952 120.624 92.0058C123.081 92.9948 125.558 93.9362 128.026 94.8981C125.358 93.9697 122.62 93.5465 119.866 93.181C118.253 92.9578 116.629 92.7144 115.178 92.0455ZM184.819 126.823C183.727 127.526 183.631 127.544 182.911 127.47C181.504 127.335 180.597 126.489 179.597 125.702C180.284 125.262 180.863 124.891 181.552 124.445C182.37 125.407 184.088 125.409 184.819 126.823ZM80.8887 86.1796C81.6501 86.4763 82.2754 86.6803 82.852 86.9526C83.4034 87.2152 84.1473 87.211 84.5967 87.871C84.3958 88.1345 84.1756 88.3746 83.9998 88.6479C83.7927 88.9488 83.6273 89.2659 83.4424 89.5833C80.6288 87.7874 80.4337 87.5365 80.8887 86.1796ZM171.198 112.453C169.731 111.706 168.64 111.178 167.583 110.591C166.745 110.129 165.957 109.6 164.765 108.873C168.045 109.785 168.88 110.254 171.198 112.453ZM51.9297 141.611C50.5804 140.887 49.6024 140.116 48.753 139.205C49.6638 139.131 50.4777 139.305 51.2202 139.896C51.7492 140.325 52.0871 140.767 51.9297 141.611ZM67.9444 167.796C68.0857 167.74 68.2354 167.687 68.3767 167.631C68.9138 168.246 69.4593 168.864 70.1864 169.696C68.648 169.366 68.1827 168.652 67.9444 167.796ZM186.958 111.75C185.241 111.017 185.241 111.017 184.549 109.921C185.843 110.091 186.232 111.006 186.958 111.75ZM104.536 189.218C106.278 189.507 106.278 189.507 107.055 190.199C106.151 189.847 105.34 189.531 104.536 189.218ZM190.194 122.852C191.295 123.814 191.295 123.814 191.445 124.739C190.488 124.056 190.488 124.056 190.194 122.852ZM88.4586 181.577C87.567 181.516 86.7884 181.237 85.9363 180.491C87.1395 180.555 87.8133 181.056 88.4586 181.577ZM201.185 213.78C201.073 213.403 200.958 213.079 200.901 212.755C200.871 212.577 200.961 212.389 201.048 211.89C201.32 212.394 201.527 212.618 201.535 212.827C201.552 213.128 201.773 213.524 201.185 213.78ZM27.905 109.968C27.4453 109.765 26.8386 109.449 27.4554 108.99C27.618 109.34 27.7559 109.656 27.905 109.968ZM85.6185 85.8527C85.6512 85.9131 85.681 85.9803 85.7136 86.0407C85.5677 86.0395 85.4272 86.0484 85.2816 86.0234C85.2369 86.014 85.205 85.9061 85.164 85.8425C85.3266 85.8502 85.4726 85.8514 85.6185 85.8527ZM123.118 222.373C123.092 222.41 123.086 222.471 123.043 222.479C122.99 222.49 122.923 222.464 122.861 222.448C122.896 222.39 122.934 222.325 122.968 222.267C123.021 222.303 123.074 222.34 123.118 222.373ZM159.835 124.67C159.771 124.661 159.701 124.666 159.642 124.643C159.625 124.636 159.638 124.562 159.636 124.521C159.7 124.53 159.767 124.533 159.818 124.552C159.843 124.562 159.833 124.63 159.835 124.67Z" fill="#2E2216" fill-opacity="0.1"></path><path fill-rule="evenodd" clip-rule="evenodd" d="M179.245 15.6368C179.16 16.3825 179.046 16.9899 179.035 17.606C179.025 18.222 179.172 18.8357 178.583 19.3215C178.355 19.511 178.384 19.9437 178.359 20.2756C178.33 20.6855 178.485 21.1434 178.364 21.5175C177.47 24.2377 176.764 27.0229 174.817 29.3324C173.491 30.8983 171.966 32.2676 170.084 33.3545C168.993 33.9865 167.97 34.6851 166.918 35.3639C164.889 36.6797 162.811 37.8812 160.371 38.7428C157.64 39.7137 155.171 41.1442 152.632 42.4202C151.089 43.1942 149.657 44.0985 148.128 44.8858C146.836 45.5512 145.839 46.4423 144.985 47.4768C143.14 49.7069 141.91 52.2325 140.918 54.8663C140.75 55.3019 140.75 55.8027 140.72 56.2836C140.668 57.0424 140.717 57.8166 140.623 58.559C140.309 61.0677 140.96 63.5554 141.831 66.0331C142.067 66.7131 142.324 67.4335 142.795 68.0221C143.754 69.2464 144.112 70.5067 144.041 71.8545C143.958 73.5071 145.027 74.8381 146.179 76.1374C146.33 76.3077 146.809 76.4225 147.045 76.3717C147.293 76.3172 147.438 76.0241 147.605 75.8186C147.642 75.7774 147.627 75.6762 147.594 75.6157C146.099 71.9967 146.802 68.3995 146.307 64.7962C145.991 62.5032 146.86 60.6158 148.08 58.8179C148.897 57.6181 149.781 56.4443 150.599 55.2446C151.75 53.5627 153.313 52.2166 155.093 51.0263C156.916 49.8049 158.678 48.5201 160.547 47.3487C162.978 45.824 165.487 44.3928 167.965 42.9181C171.9 40.5726 175.792 38.1701 179.089 35.1945C180.856 33.6017 182.176 31.7312 182.806 29.5123C182.97 28.9244 183.059 28.3073 183.122 27.704C183.419 24.5289 183.038 21.3199 182.331 18.1191C182.162 17.3297 181.667 16.5486 181.224 15.8039C181.066 15.5355 180.589 15.1906 180.302 15.1983C179.929 15.1801 179.576 15.4797 179.245 15.6368ZM143.359 62.9718C142.614 62.1808 142.664 61.5642 142.671 60.955C142.682 59.4964 142.709 58.0444 142.736 56.5923C142.747 56.247 142.717 55.8853 142.831 55.5723C143.83 52.7896 145.056 50.1118 147.176 47.8776C147.7 47.3183 148.342 46.8216 149.042 46.4187C150.913 45.3591 152.797 44.289 154.77 43.3564C157.695 41.9766 160.481 40.3993 163.725 39.4615C164.382 39.2724 164.961 38.9018 165.514 38.5451C168.062 36.9306 170.596 35.3028 173.125 33.665C175.06 32.4081 176.592 30.7714 177.591 28.9192C179.057 26.2074 180.457 23.4221 180.882 20.3129C180.92 20.0416 180.851 19.6332 181.445 19.5703C181.535 19.8599 181.635 20.1292 181.698 20.3922C182.198 22.5268 181.685 24.5207 181.334 26.546C180.98 28.5545 180.053 30.2838 178.822 31.9025C177.63 33.4733 176.121 34.7848 174.423 35.9435C171.032 38.2471 167.706 40.6074 163.943 42.5037C163.273 42.8385 162.651 43.2402 162.038 43.6451C159.288 45.4588 156.556 47.296 153.789 49.1032C151.499 50.5954 149.494 52.3101 148.126 54.5197C147.653 55.2812 147.152 56.0398 146.562 56.7321C145.022 58.5246 144.087 60.5687 143.359 62.9718Z" fill="#2E2216" fill-opacity="0.1"></path><path fill-rule="evenodd" clip-rule="evenodd" d="M152.443 21.663C151.944 22.3268 151.442 22.7674 151.22 23.3087C150.576 24.8781 149.277 25.9937 148.075 27.2025C146.665 28.6242 144.843 29.4802 142.665 29.7762C140.828 30.0301 139.116 30.4918 137.42 31.0312C135.871 31.5244 134.324 32.0108 132.769 32.494C130.289 33.2682 128.355 34.6131 126.515 36.1698C123.995 38.3117 123.077 41.1575 121.9 43.926C121.821 44.1099 121.778 44.3237 121.769 44.5268C121.675 47.2962 121.831 50.0755 122.446 52.875C122.684 53.9374 123.173 54.9149 123.978 55.8167C124.912 56.8722 125.651 57.9949 126.18 59.2425C126.566 60.1639 127.346 61.0085 128.017 61.8581C128.124 61.9953 128.621 62.0218 128.888 61.9671C129.037 61.9378 129.217 61.634 129.174 61.4824C129.002 60.8589 128.757 60.2467 128.531 59.6341C127.141 55.8173 126.635 52.0112 127.226 48.2193C127.34 47.4766 127.554 46.7493 127.824 46.0516C128.405 44.5135 129.012 42.9852 129.694 41.4863C130.058 40.6823 130.559 39.9237 131.094 39.2018C132.196 37.7237 133.71 36.6998 135.601 35.9105C138.682 34.6232 141.602 33.098 144.587 31.6699C145.065 31.4429 145.489 31.1152 146.01 30.9925C147.969 30.5237 149.384 29.3658 151.01 28.4891C151.772 28.0785 152.252 27.5267 152.512 26.7851C152.786 26.0096 153.085 25.2438 153.376 24.4748C153.655 23.733 153.522 22.9736 153.15 22.2244C153.065 22.0565 152.8 21.9453 152.443 21.663ZM132.642 34.9085C127.71 38.9404 125.719 44.1742 124.49 49.84C122.276 44.6209 127.128 36.2656 132.642 34.9085ZM124.345 50.9757C124.374 50.9313 124.411 50.8901 124.44 50.8457C124.484 50.8789 124.565 50.9183 124.556 50.9387C124.544 50.9897 124.49 51.0243 124.461 51.0687C124.425 51.0388 124.389 51.0089 124.345 50.9757Z" fill="#2E2216" fill-opacity="0.1"></path><path fill-rule="evenodd" clip-rule="evenodd" d="M200.672 0.218467C201.854 1.87942 201.798 1.87348 202.029 3.81579C202.179 5.08252 202.313 6.31904 201.844 7.50354C201.747 7.75199 201.748 8.04638 201.757 8.32033C201.843 10.4204 201.436 12.4398 200.995 14.4462C200.919 14.7823 200.759 15.1095 200.779 15.451C200.909 17.4016 200.053 19.0554 199.293 20.7382C198.701 22.0497 198.031 23.3387 197.531 24.6861C196.872 26.4724 195.581 27.8213 194.067 29.0753C191.24 31.4079 188.438 33.7739 185.689 36.1764C184.724 37.0163 183.905 37.9928 183.072 38.9323C182.849 39.1792 182.736 39.5328 182.675 39.8586C182.65 40.0078 182.854 40.2383 183.014 40.3882C183.1 40.4614 183.377 40.4979 183.462 40.4357C184.251 39.9165 185.157 39.4666 185.744 38.8049C186.651 37.7831 187.769 37.0188 189.057 36.3839C193.096 34.3888 197.092 32.3367 201.136 30.3516C203.313 29.2841 204.744 27.7673 205.557 25.6911C206.231 23.9588 206.687 22.2128 206.926 20.3583C207.356 16.9884 207.245 13.6704 206.231 10.2068C205.541 7.85506 204.641 5.55715 203.776 3.24859C203.475 2.44768 202.862 1.69197 202.358 0.931268C202.112 0.525449 202.075 0.542911 200.672 0.218467ZM195.885 30.3005C195.782 30.4273 195.67 30.5507 195.567 30.6774C195.523 30.6206 195.487 30.567 195.443 30.5101C195.601 30.4604 195.76 30.4107 195.918 30.361C196.199 29.9778 196.409 29.5348 196.773 29.2317C197.738 28.4391 198.38 27.489 198.797 26.3797C199.449 24.6544 200.213 22.9648 200.915 21.2591C201.661 19.4276 202.67 17.6666 202.386 15.5525C202.366 15.4175 202.424 15.2812 202.451 15.1489C202.958 13.0806 203.187 10.9759 203.082 8.80497C203.061 8.39922 202.857 7.85066 203.42 7.56149C203.55 7.71524 203.716 7.82783 203.745 7.94246C204.236 10.1686 204.92 12.3986 205.113 14.6122C205.256 16.3291 204.784 18.0212 204.587 19.7329C204.519 20.2787 204.451 20.8246 204.374 21.3671C204.121 23.232 203.202 24.8529 202.382 26.5129C202.15 26.9867 201.704 27.4331 201.211 27.7179C199.626 28.6583 197.97 29.5152 196.324 30.3922C196.248 30.4339 196.039 30.3287 195.885 30.3005Z" fill="#2E2216" fill-opacity="0.1"></path><path fill-rule="evenodd" clip-rule="evenodd" d="M161.554 71.5488C161.42 71.8621 161.316 72.1952 161.14 72.4922C159.602 75.1678 159.665 78.1413 160.007 81.1682C160.198 82.8404 160.445 84.5186 160.485 86.1794C160.524 87.6576 161.537 88.8473 162.201 90.1471C162.356 90.446 163.128 90.4447 163.234 90.1521C163.358 89.7713 163.483 89.3668 163.439 88.9681C163.225 86.8022 163.02 84.6396 162.688 82.4754C162.402 80.6152 162.695 78.8851 163.318 77.2042C163.462 76.8231 163.676 76.4613 163.795 76.0704C164.91 72.4907 167.785 70.1371 171.144 68.1554C173.378 66.84 175.684 65.608 178.02 64.4197C181.338 62.7397 182.459 59.989 182.681 56.7609C182.721 56.2122 182.688 55.6509 182.633 55.0968C182.616 54.9312 182.391 54.6368 182.243 54.6187C181.965 54.5821 181.555 54.6051 181.409 54.7629C181.072 55.1164 180.84 55.5428 180.62 55.9657C180.275 56.634 179.999 57.3453 179.645 58.0104C179.115 58.9961 178.372 59.8192 177.096 60.1967C174.033 61.1014 171.323 62.5017 168.555 63.8555C167.27 64.4835 166.042 65.0701 164.985 65.9858C163.758 67.0496 162.862 68.2268 162.361 69.669C162.14 70.2983 161.834 70.9186 161.554 71.5488C161.563 71.552 161.563 71.552 161.554 71.5488ZM174.019 63.7512C174.182 63.2344 174.469 62.885 175.236 63.1681C174.985 63.5948 174.668 63.9007 173.998 63.7109C173.745 64.5267 172.824 64.7163 172.127 65.0887C169.629 66.4283 167.222 67.8512 165.248 69.7211C165.203 69.759 164.988 69.6674 164.748 69.6135C164.839 69.3549 164.877 69.0837 165.021 68.8616C165.203 68.5747 165.443 68.3106 165.672 68.05C167.325 66.2457 169.735 65.2931 172.063 64.2606C172.645 63.9948 173.363 63.9165 174.019 63.7512Z" fill="#2E2216" fill-opacity="0.1"></path><path fill-rule="evenodd" clip-rule="evenodd" d="M203.835 49.424C203.559 49.2927 203.246 49.2025 203.027 49.0298C202.75 48.8106 202.548 48.509 202.308 48.2486C202.052 48.4114 201.83 48.4756 201.831 48.5636C201.83 49.7716 201.336 50.811 200.852 51.8705C200.083 53.5501 199.336 55.2463 198.634 56.9519C197.955 58.6031 197.151 60.1817 196.049 61.6361C194.757 63.3268 193.02 64.6214 190.911 65.5086C189.614 66.0522 188.498 66.9688 186.851 66.939C186.705 66.9377 186.554 67.0381 186.435 67.1109C184.673 68.2604 182.946 69.4397 181.449 70.8357C181.301 70.9766 181.191 71.1643 181.109 71.355C180.534 72.6731 179.951 73.9878 179.409 75.3189C179.049 76.204 179.274 77.0467 180.143 77.9577C180.822 77.4671 181.364 76.9549 181.941 76.5201C182.521 76.0784 182.796 75.2554 182.968 74.5355C183.478 72.3894 185.326 71.3368 187.367 70.4709C189.242 69.6751 191.237 69.0535 193.111 68.2577C195.13 67.3989 197.153 66.6212 199.474 66.2858C201.41 66.0068 202.634 64.8382 203.338 63.3796C204.236 61.5356 205.157 59.6609 205.645 57.6809C206.428 54.5122 206.185 51.2538 204.377 48.0455C204.2 47.73 203.942 47.3988 203.628 47.1733C203.293 46.9313 202.861 46.8666 202.479 47.2343C202.908 47.942 203.359 48.6899 203.798 49.4414C203.757 49.7195 203.663 49.9848 203.711 50.2582C204.232 53.5295 204.031 56.6388 202.381 59.4853C202.002 60.1406 201.718 60.8486 201.465 61.5528C200.652 63.8591 198.672 64.7173 195.877 64.6774C195.894 64.4775 195.858 64.3122 195.932 64.2299C197.716 62.4609 198.958 60.4089 199.868 58.1722C200.843 55.7621 201.855 53.3581 202.863 50.961C203.075 50.3996 203.175 49.7551 203.835 49.424Z" fill="#2E2216" fill-opacity="0.1"></path><path fill-rule="evenodd" clip-rule="evenodd" d="M6.64244 155.538C6.84948 155.578 7.0678 155.616 7.27485 155.657C7.097 155.548 6.91375 155.429 6.73591 155.32C6.70378 155.395 6.67457 155.463 6.64244 155.538Z" fill="#2E2216" fill-opacity="0.1"></path><path fill-rule="evenodd" clip-rule="evenodd" d="M141.292 185.576C140.644 185.379 140.254 185.195 139.875 185.167C138.487 185.079 137.059 184.88 135.726 185.029C133.195 185.306 130.686 184.917 128.165 184.443C124.902 183.831 121.663 183.118 118.512 182.041C118.359 181.989 118.197 181.934 118.034 181.902C117.632 181.817 117.15 181.733 117.059 182.15C116.974 182.554 117.411 182.764 117.801 182.924C118.108 183.052 118.423 183.159 118.736 183.273C120.282 183.835 121.991 184.016 123.277 185.138C123.435 185.271 123.746 185.297 123.987 185.327C126.85 185.711 129.704 186.092 132.572 186.462C132.894 186.508 133.247 186.551 133.546 186.492C135.728 186.071 138.018 186.128 140.268 186.004C140.547 185.993 140.789 185.793 141.292 185.576Z" fill="#2E2216" fill-opacity="0.1"></path><path fill-rule="evenodd" clip-rule="evenodd" d="M146.913 167.345C147.381 167.44 148.031 167.654 148.676 167.698C150.305 167.816 151.932 167.87 153.562 167.917C155.184 167.961 156.803 167.829 158.428 168.39C158.631 168.462 158.905 168.393 159.125 168.336C159.266 168.303 159.441 168.189 159.446 168.088C159.466 167.905 159.445 167.634 159.298 167.521C158.301 166.704 157.113 166.447 155.858 166.459C154.072 166.478 152.29 166.467 150.512 166.538C149.219 166.59 147.952 166.701 146.652 166.178C146.446 166.09 146.103 166.298 145.821 166.363C145.974 166.598 146.102 166.846 146.295 167.057C146.386 167.164 146.585 167.201 146.913 167.345Z" fill="#2E2216" fill-opacity="0.1"></path><path fill-rule="evenodd" clip-rule="evenodd" d="M147.04 179.914C146.564 179.864 146.234 179.767 145.944 179.805C145.154 179.895 144.369 180.018 143.6 180.148C141.97 180.419 140.335 180.704 138.702 180.982C138.395 181.037 138.074 181.079 137.773 181.144C137.364 181.231 137.041 181.439 137.113 181.841C137.188 182.236 137.574 182.474 138 182.481C138.89 182.502 139.804 182.556 140.657 182.435C142.612 182.156 144.533 181.775 146.459 181.405C146.735 181.354 147.053 181.136 147.124 180.925C147.216 180.643 147.081 180.296 147.04 179.914Z" fill="#2E2216" fill-opacity="0.1"></path><path fill-rule="evenodd" clip-rule="evenodd" d="M164.857 160.252C163.27 160.174 161.876 159.599 160.277 159.866C161.024 161.039 162.121 161.236 163.239 161.362C164.02 161.452 164.669 161.283 164.857 160.252Z" fill="#2E2216" fill-opacity="0.1"></path><path fill-rule="evenodd" clip-rule="evenodd" d="M168.744 150.392C169.234 151.481 170.144 151.795 171.126 152.146C171.377 151.95 171.623 151.807 171.803 151.615C171.995 151.42 172.125 151.184 172.266 150.993C172.011 150.425 170.458 150.153 168.744 150.392Z" fill="#2E2216" fill-opacity="0.1"></path><path fill-rule="evenodd" clip-rule="evenodd" d="M154.698 172.692C154.351 171.976 153.815 171.791 153.262 171.965C152.573 172.182 151.952 172.536 151.274 172.844C152.568 173.651 152.838 173.636 154.698 172.692Z" fill="#2E2216" fill-opacity="0.1"></path><path fill-rule="evenodd" clip-rule="evenodd" d="M173.536 145.868C173.889 146.593 174.477 146.862 175.122 147.018C175.486 147.104 175.755 146.931 175.777 146.63C175.788 146.467 175.672 146.191 175.514 146.106C174.935 145.793 174.31 145.589 173.536 145.868Z" fill="#2E2216" fill-opacity="0.1"></path><path fill-rule="evenodd" clip-rule="evenodd" d="M106.575 181.936C106.27 181.897 105.97 181.843 105.671 181.814C105.446 181.79 105.227 181.8 104.804 181.786C105.289 181.975 105.582 182.089 105.875 182.204C106.148 182.318 106.435 182.446 106.575 181.936Z" fill="#2E2216" fill-opacity="0.1"></path><path fill-rule="evenodd" clip-rule="evenodd" d="M142.74 197.34C142.28 198.322 142.823 198.899 142.954 199.483C143.184 200.494 142.959 200.884 141.84 201.147C141.535 201.219 141.223 201.288 140.9 201.29C138.298 201.277 135.694 201.383 133.084 201.185C129.162 200.881 125.223 200.411 121.298 199.907C119.427 199.671 117.56 199.221 115.702 198.815C112.704 198.156 109.751 197.347 106.879 196.188C105.273 195.538 103.553 195.154 101.885 194.647C100.614 194.263 99.332 193.907 98.0787 193.482C95.3236 192.551 92.5806 191.57 89.8285 190.633C89.608 190.555 89.3445 190.531 89.1225 190.548C88.982 190.557 88.8035 190.654 88.7626 190.75C88.7093 190.92 88.6572 191.178 88.7673 191.308C88.9545 191.532 89.2374 191.738 89.5244 191.865C92.4809 193.169 95.4229 194.506 98.4258 195.724C99.8005 196.275 101.295 196.548 102.731 196.98C104.155 197.416 105.602 197.821 106.991 198.362C109.01 199.141 111.055 199.771 113.16 200.305C117.201 201.331 121.238 202.165 125.352 202.433C126.903 202.528 128.466 202.684 130.015 202.922C133.562 203.462 137.05 203.414 140.527 203.275C141.482 203.233 142.437 203.057 143.306 202.784C145.05 202.223 145.437 200.911 144.386 199.445C143.942 198.818 143.449 198.237 142.74 197.34Z" fill="#2E2216" fill-opacity="0.1"></path><path fill-rule="evenodd" clip-rule="evenodd" d="M192.592 218.834C192.699 218.653 192.777 218.469 192.909 218.298C194.153 216.604 194.217 214.817 193.212 212.764C192.504 211.319 192.351 209.741 191.491 208.285C190.566 206.709 189.484 205.246 187.995 203.982C187.928 203.932 187.873 203.879 187.821 203.819C183.999 200.024 179.21 197.324 174.313 194.763C173.873 194.536 173.433 194.309 172.97 194.137C170.479 193.206 168.063 192.145 165.766 190.829C165.138 190.472 164.401 190.233 163.697 190.006C161.961 189.433 160.221 188.89 158.475 188.361C158.096 188.245 157.678 188.217 157.288 188.216C157.198 188.221 157.034 188.602 157.1 188.676C157.365 188.946 157.681 189.212 158.037 189.383C159.081 189.885 160.169 190.309 161.196 190.828C162.961 191.723 164.677 192.685 166.442 193.58C167.836 194.29 169.21 195.048 170.669 195.609C172.7 196.384 174.523 197.484 176.444 198.423C180.431 200.375 183.701 203.088 186.939 205.828C188.752 207.361 189.824 209.257 190.613 211.266C190.957 212.147 191.288 213.039 191.779 213.875C192.437 214.982 192.61 216.035 192.168 217.111C192.042 217.427 191.93 217.757 191.902 218.096C191.864 218.526 192.274 218.686 192.693 218.802C192.679 218.812 192.592 218.834 192.592 218.834Z" fill="#2E2216" fill-opacity="0.1"></path><path fill-rule="evenodd" clip-rule="evenodd" d="M59.4349 162.318C58.6737 161.839 57.9327 161.335 57.1628 160.876C54.7225 159.417 52.234 159.162 49.6968 159.978C49.1972 160.141 48.6184 160.17 48.0594 160.199C47.2502 160.241 46.4313 160.192 45.6306 160.238C43.8575 160.342 43.346 161.216 44.2201 162.661C44.3977 162.953 44.7419 163.357 45.0359 163.4C45.7302 163.512 46.0212 163.904 46.3536 164.335C47.6399 165.981 48.9716 167.589 50.1985 169.259C51.074 170.451 52.0782 171.502 53.357 172.414C55.0104 173.591 56.5869 174.833 58.2231 176.027C59.0496 176.627 59.5561 176.722 59.9874 176.444C60.484 176.129 60.3421 175.549 59.5034 174.841C57.9117 173.497 56.2858 172.188 54.7055 170.841C54.0413 170.272 53.3859 169.683 52.8437 169.034C51.355 167.246 49.9201 165.423 48.4824 163.607C48.1579 163.202 47.8986 162.759 47.6001 162.317C49.196 161.556 50.8416 162.022 52.3795 162.216C53.1446 161.115 53.2069 161.084 54.4115 161.394C55.3786 161.644 56.349 161.863 57.284 162.188C58.0403 162.45 58.7178 162.396 59.4131 162.278C59.4102 162.285 59.4349 162.318 59.4349 162.318Z" fill="#2E2216" fill-opacity="0.1"></path><path fill-rule="evenodd" clip-rule="evenodd" d="M99.6431 192.931C99.3137 192.652 99.1571 192.447 98.9508 192.359C96.3616 191.247 93.787 190.1 90.9775 189.57C90.0933 189.4 89.214 189.105 88.3631 188.79C86.6529 188.155 84.9783 187.415 83.2535 186.814C79.4551 185.493 75.9916 183.619 72.6124 181.571C71.9149 181.148 71.1951 180.709 70.4308 180.419C68.481 179.683 66.6088 178.834 64.8672 177.726C64.6589 177.597 64.2872 177.667 63.9927 177.648C64.0532 177.894 64.0163 178.253 64.1829 178.365C65.121 179.001 66.0459 179.759 67.1064 180.133C69.9694 181.153 72.4324 182.765 75.0048 184.212C76.8763 185.267 78.7691 186.228 80.8172 186.962C83.323 187.859 85.7763 188.879 88.2791 189.782C89.3618 190.173 90.5091 190.389 91.6209 190.711C92.811 191.056 94.0094 191.403 95.1874 191.799C96.3654 192.194 97.5167 192.675 98.706 193.067C98.9348 193.148 99.2433 192.998 99.6431 192.931Z" fill="#2E2216" fill-opacity="0.1"></path><path fill-rule="evenodd" clip-rule="evenodd" d="M27.5259 148.58C27.2345 148.212 27.0702 147.798 26.7966 147.708C24.2318 146.812 21.4937 147.048 19.6094 148.436C19.4247 148.571 19.323 148.945 19.4123 149.147C19.499 149.331 19.8918 149.508 20.1604 149.565C20.4653 149.628 20.8057 149.586 21.1096 149.538C23.1271 149.251 25.1338 148.944 27.5259 148.58Z" fill="#2E2216" fill-opacity="0.1"></path><path fill-rule="evenodd" clip-rule="evenodd" d="M163.817 212.382C164.646 211.179 165.264 209.941 165.469 208.439C165.135 208.444 164.777 208.368 164.719 208.457C163.97 209.588 163.247 210.729 163.31 212.153C163.315 212.186 163.455 212.225 163.817 212.382Z" fill="#2E2216" fill-opacity="0.1"></path><path fill-rule="evenodd" clip-rule="evenodd" d="M176.344 209.084C176.481 208.97 176.786 208.851 176.826 208.668C176.938 208.179 176.597 207.72 176.042 207.535C175.869 207.484 175.533 207.56 175.464 207.676C175.195 208.143 175.544 208.764 176.344 209.084Z" fill="#2E2216" fill-opacity="0.1"></path><path fill-rule="evenodd" clip-rule="evenodd" d="M170.62 209.771C171.031 209.541 171.369 209.459 171.426 209.282C171.488 209.091 171.301 208.82 171.218 208.581C170.976 208.669 170.618 208.705 170.509 208.869C170.403 209.026 170.549 209.322 170.62 209.771Z" fill="#2E2216" fill-opacity="0.1"></path><path fill-rule="evenodd" clip-rule="evenodd" d="M34.4487 151.405C34.2922 151.702 34.4287 151.93 34.7889 152.046C35.2022 152.176 35.6996 151.972 35.6571 151.661C35.6218 151.425 35.4413 151.14 35.2308 150.971C34.9537 150.751 34.5964 150.97 34.4487 151.405Z" fill="#2E2216" fill-opacity="0.1"></path><path fill-rule="evenodd" clip-rule="evenodd" d="M72.4874 75.2349C72.9889 75.796 73.6701 75.6878 74.3062 75.7529C77.1618 76.039 80.0271 76.2573 82.8786 76.6213C84.831 76.8733 86.7685 77.3422 88.7222 77.6822C91.4902 78.1726 94.2503 78.6361 97.0213 79.1197C98.404 79.3565 99.7772 79.6611 101.167 79.8368C101.954 79.9369 102.755 79.8438 103.545 79.8017C103.635 79.797 103.739 79.5992 103.749 79.484C103.76 79.3688 103.682 79.1636 103.59 79.1277C103.138 78.9516 102.672 78.7622 102.199 78.6812C99.0248 78.1596 95.8439 77.6752 92.6719 77.1705C91.4456 76.9788 90.2273 76.814 89.0076 76.5613C83.9608 75.5326 78.9036 75.12 73.8394 74.792C73.3401 74.7723 72.6231 74.5088 72.4874 75.2349Z" fill="#2E2216" fill-opacity="0.1"></path><path fill-rule="evenodd" clip-rule="evenodd" d="M129.636 85.0882C129.853 85.3557 129.972 85.6483 130.192 85.75C131.392 86.2973 132.613 86.8208 133.846 87.3169C138.307 89.119 142.751 90.9619 147.241 92.6959C151.982 94.5277 156.467 96.7998 160.974 99.0411C161.77 99.4388 162.516 99.9759 163.702 100.057C163.523 99.7242 163.48 99.4135 163.288 99.3148C160.956 98.0803 158.59 96.9038 156.272 95.6589C153.501 94.1736 150.565 93.0292 147.637 91.8644C142.386 89.7863 137.152 87.6911 131.898 85.6199C131.237 85.3623 130.595 84.9454 129.636 85.0882Z" fill="#2E2216" fill-opacity="0.1"></path><path fill-rule="evenodd" clip-rule="evenodd" d="M80.6465 71.7848C80.1803 71.4601 80.0455 71.2963 79.9305 71.2912C78.241 71.2688 76.5515 71.2463 74.8833 71.2878C74.2318 71.3042 73.9336 71.6809 74.1851 72.4148C76.2635 72.3503 78.3716 72.3531 80.6465 71.7848Z" fill="#2E2216" fill-opacity="0.1"></path><path fill-rule="evenodd" clip-rule="evenodd" d="M178.154 105.934C178.221 106.072 178.286 106.217 178.354 106.354C178.422 106.333 178.49 106.312 178.546 106.294C178.388 106.185 178.241 106.072 178.086 105.956L178.154 105.934Z" fill="#2E2216" fill-opacity="0.1"></path><path fill-rule="evenodd" clip-rule="evenodd" d="M52.6133 147.395C53.4078 146.885 53.1352 146.406 52.8254 146.126C51.3626 144.801 49.8317 143.52 48.3091 142.244C48.071 142.047 47.7651 141.873 47.4606 141.786C47.2845 141.741 47.0216 141.853 46.8598 141.957C46.7775 142.012 46.7994 142.212 46.8451 142.333C46.8962 142.464 47.0093 142.588 47.1227 142.687C48.9408 144.254 50.748 145.801 52.6133 147.395Z" fill="#2E2216" fill-opacity="0.1"></path><path fill-rule="evenodd" clip-rule="evenodd" d="M146.535 117.134C144.802 116.666 143.64 116.348 142.424 116.017C142.451 116.274 142.406 116.447 142.489 116.527C143.263 117.25 144.282 117.584 145.317 117.789C145.569 117.839 145.869 117.503 146.535 117.134Z" fill="#2E2216" fill-opacity="0.1"></path><path fill-rule="evenodd" clip-rule="evenodd" d="M153.158 114.374C152.475 114.783 152.449 115.457 152.176 116.185C153.808 115.613 154.004 115.18 153.158 114.374Z" fill="#2E2216" fill-opacity="0.1"></path></svg>